<?xml version="1.0" standalone="no"?>
<!DOCTYPE svg PUBLIC "-//W3C//DTD SVG 20010904//EN"
 "http://www.w3.org/TR/2001/REC-SVG-20010904/DTD/svg10.dtd">
<svg version="1.0" xmlns="http://www.w3.org/2000/svg"
 width="341.000000pt" height="341.000000pt" viewBox="0 0 341.000000 341.000000"
 preserveAspectRatio="xMidYMid meet">
<metadata>
Created by potrace 1.16, written by Peter Selinger 2001-2019
</metadata>
<g transform="translate(0.000000,341.000000) scale(0.100000,-0.100000)"
fill="#000000" stroke="none">
<path d="M760 2429 c-228 -177 -347 -354 -365 -546 -6 -63 6 -197 21 -236 6
-17 -14 -29 -81 -48 -21 -6 -12 -7 31 -3 l61 5 34 -78 c19 -43 34 -82 34 -87
0 -5 -25 -17 -55 -27 -51 -17 -52 -18 -15 -14 22 3 50 8 61 11 19 5 30 -6 73
-73 55 -84 62 -81 31 17 -11 34 -20 66 -20 70 0 7 42 22 118 40 24 6 58 20 75
30 18 11 54 30 80 44 76 40 132 82 171 128 64 74 41 134 -61 159 -24 6 -43 14
-43 18 0 3 9 20 20 36 43 65 13 116 -78 136 -63 13 -75 7 -39 -22 64 -50 12
-157 -106 -219 -22 -12 -66 -38 -100 -60 -62 -41 -81 -47 -92 -30 -13 21 -5
239 11 306 36 145 116 284 236 411 59 63 75 83 66 83 -2 0 -32 -23 -68 -51z
m165 -640 c32 -38 27 -75 -16 -130 -38 -48 -79 -78 -169 -122 -41 -20 -88 -46
-105 -57 -16 -11 -40 -20 -51 -20 -22 0 -30 20 -53 128 -9 43 -9 44 25 58 18
8 41 14 50 14 26 0 111 44 199 104 44 30 83 55 87 55 3 1 18 -13 33 -30z"/>
<path d="M1240 2335 c0 -20 5 -25 25 -25 l25 0 0 -205 0 -205 -26 0 c-22 0
-25 -4 -22 -27 3 -28 4 -28 78 -28 74 0 75 0 78 28 3 23 0 27 -22 27 -26 0
-26 0 -26 90 l0 90 33 0 c54 0 140 20 162 38 59 49 74 135 33 187 -35 45 -74
55 -213 55 l-125 0 0 -25z m271 -44 c19 -15 24 -29 24 -66 0 -67 -25 -85 -116
-85 l-69 0 0 85 0 85 69 0 c53 0 74 -4 92 -19z"/>
<path d="M1647 2193 c-13 -12 -7 -53 6 -53 15 0 127 -274 127 -307 -1 -35 -34
-88 -58 -91 -16 -3 -22 -10 -22 -28 0 -23 3 -24 70 -24 68 0 70 1 70 25 0 18
-5 25 -20 25 -11 0 -20 6 -20 13 0 6 33 95 74 197 61 154 77 186 95 188 18 3
22 9 19 30 -3 23 -8 27 -42 30 -61 5 -86 -4 -86 -33 0 -19 5 -25 21 -25 13 0
19 -5 16 -12 -56 -147 -72 -185 -81 -196 -7 -10 -18 8 -43 73 -47 124 -48 131
-24 138 25 6 28 42 5 51 -21 8 -99 8 -107 -1z"/>
</g>
</svg>
